<?xml version="1.0" standalone="no"?>
<!DOCTYPE svg PUBLIC "-//W3C//DTD SVG 20010904//EN"
 "http://www.w3.org/TR/2001/REC-SVG-20010904/DTD/svg10.dtd">
<svg version="1.0" xmlns="http://www.w3.org/2000/svg"
 width="256.000000pt" height="256.000000pt" viewBox="0 0 256.000000 256.000000"
 preserveAspectRatio="xMidYMid meet">
<metadata>
Created by potrace 1.10, written by Peter Selinger 2001-2011
</metadata>
<g transform="translate(0.000000,256.000000) scale(0.100000,-0.100000)"
fill="#000000" stroke="none">
<path d="M0 1280 l0 -1280 1280 0 1280 0 0 1280 0 1280 -1280 0 -1280 0 0
-1280z m1510 902 c42 -19 100 -82 117 -126 7 -18 12 -91 12 -174 l1 -142 -26
-10 c-32 -13 -30 -13 -48 6 -13 12 -16 41 -16 148 0 123 -2 136 -23 167 -15
21 -30 33 -41 31 -10 -2 -15 1 -12 6 15 24 -98 31 -129 8 -19 -13 -18 -14 5
-10 22 4 29 -3 53 -50 25 -51 27 -64 27 -175 0 -115 -1 -121 -22 -132 -13 -7
-25 -11 -28 -10 -41 22 -40 19 -40 132 0 83 -4 120 -17 146 -13 28 -14 39 -5
54 15 23 6 25 -16 3 -13 -14 -17 -42 -19 -138 -2 -67 -6 -136 -9 -153 -5 -31
-8 -33 -44 -33 l-40 0 0 151 c0 184 13 226 88 276 78 54 153 62 232 25z m-303
-43 c19 -19 -10 -63 -62 -93 -64 -38 -75 -65 -75 -190 0 -110 -10 -138 -47
-131 -10 2 -24 4 -31 4 -11 1 -13 29 -10 134 3 128 4 136 33 183 44 72 158
127 192 93z m-110 -181 c-3 -8 -6 -5 -6 6 -1 11 2 17 5 13 3 -3 4 -12 1 -19z
m773 -270 c9 -22 17 -85 80 -663 52 -473 55 -504 43 -516 -6 -6 -39 -15 -74
-20 -35 -5 -87 -13 -116 -18 -29 -5 -83 -12 -120 -16 -37 -3 -78 -8 -91 -11
-13 -2 -53 -9 -90 -13 -37 -5 -116 -16 -177 -25 -60 -9 -146 -21 -190 -27 -44
-6 -102 -15 -128 -20 -101 -19 -122 -14 -284 67 -83 42 -154 82 -157 89 -5 13
34 402 69 685 9 69 24 202 35 295 16 131 24 173 37 183 39 28 71 9 103 -62 31
-68 51 -72 74 -13 9 23 25 57 36 75 l20 32 460 0 460 0 10 -22z"/>
<path d="M1344 2174 c-49 -17 -102 -67 -120 -111 -10 -22 -14 -78 -14 -176 0
-143 0 -144 23 -142 21 2 22 5 27 146 3 81 10 153 17 164 62 107 218 103 274
-6 16 -32 19 -59 19 -167 l0 -130 26 -5 25 -4 -3 152 c-3 152 -3 154 -33 197
-56 78 -157 113 -241 82z"/>
<path d="M1342 2058 c-16 -16 -15 -30 3 -64 10 -20 15 -61 15 -135 0 -106 0
-107 25 -111 l25 -5 0 116 c0 92 -4 125 -19 157 -22 48 -33 58 -49 42z"/>
<path d="M1165 2130 c-41 -9 -86 -34 -112 -62 -42 -44 -53 -90 -53 -211 0
-112 0 -114 23 -112 21 2 22 6 27 123 6 138 17 162 86 197 22 11 46 31 52 44
14 30 14 29 -23 21z"/>
<path d="M905 1600 c-21 -50 -44 -90 -51 -90 -8 0 -32 36 -54 80 -34 68 -44
80 -65 80 -14 0 -25 -2 -25 -4 0 -3 -16 -143 -35 -313 -20 -169 -46 -407 -60
-528 -13 -121 -27 -239 -30 -262 l-6 -42 153 -77 c162 -82 167 -83 278 -64 30
5 91 14 135 20 44 6 107 15 140 20 33 5 96 14 140 20 44 6 108 15 143 20 164
25 203 30 277 40 44 6 94 13 110 16 l30 4 -64 585 -65 585 -457 0 -456 0 -38
-90z"/>
</g>
</svg>
