<?xml version="1.0" standalone="no"?>
<!DOCTYPE svg PUBLIC "-//W3C//DTD SVG 20010904//EN"
 "http://www.w3.org/TR/2001/REC-SVG-20010904/DTD/svg10.dtd">
<svg version="1.0" xmlns="http://www.w3.org/2000/svg"
 width="256.000000pt" height="256.000000pt" viewBox="0 0 256.000000 256.000000"
 preserveAspectRatio="xMidYMid meet">
<metadata>
Created by potrace 1.10, written by Peter Selinger 2001-2011
</metadata>
<g transform="translate(0.000000,256.000000) scale(0.100000,-0.100000)"
fill="#000000" stroke="none">
<path d="M1340 2203 c-24 -5 -70 -33 -98 -60 -16 -16 -14 -16 -46 1 -38 19
-92 3 -147 -44 -64 -55 -83 -120 -77 -268 l4 -110 -30 -13 c-22 -10 -39 -31
-60 -76 -17 -35 -33 -63 -37 -63 -4 0 -12 14 -20 31 -22 53 -58 89 -90 89 -35
0 -56 -28 -64 -90 -3 -25 -10 -76 -15 -115 -5 -38 -11 -86 -14 -105 -3 -19
-12 -102 -20 -185 -9 -82 -18 -170 -20 -195 -3 -25 -10 -90 -16 -145 -5 -55
-16 -149 -23 -208 -15 -131 -8 -155 56 -183 23 -10 44 -21 47 -24 3 -3 51 -27
106 -54 114 -55 102 -54 319 -22 55 8 123 18 150 21 28 3 73 10 100 15 28 5
91 14 140 20 50 7 113 16 140 20 28 5 115 16 194 26 117 14 149 22 169 39 l25
22 -12 114 c-6 63 -16 148 -21 189 -14 110 -51 454 -64 594 -2 17 -6 45 -9 61
-4 17 -9 59 -12 95 -7 88 -21 127 -48 134 -12 3 -63 6 -113 6 l-91 0 5 133 c6
170 -10 233 -72 292 -59 57 -137 76 -236 58z m173 -45 c23 -13 55 -42 72 -66
30 -43 30 -44 33 -198 l3 -154 -25 0 -26 0 0 138 c0 123 -3 141 -23 176 -57
101 -198 105 -264 6 -21 -30 -23 -44 -23 -177 l0 -144 -26 3 -26 3 1 144 c2
143 10 183 43 221 71 80 170 98 261 48z m-323 -50 c-6 -13 -30 -33 -53 -44
-71 -33 -82 -57 -85 -200 -4 -124 -4 -124 -28 -124 -24 0 -24 0 -24 115 0 153
24 210 105 253 28 14 86 31 93 27 1 -1 -2 -13 -8 -27z m298 -32 c43 -37 52
-68 52 -178 0 -57 4 -120 9 -140 l9 -38 -68 0 -68 0 9 38 c4 20 7 81 5 135 -3
82 -8 106 -30 148 -31 60 -30 57 -8 61 29 6 64 -4 90 -26z m-97 -60 c15 -32
19 -65 19 -158 l0 -118 -25 0 -25 0 0 113 c0 92 -4 119 -19 148 -18 33 -18 38
-4 52 21 21 31 14 54 -37z m-206 -136 l0 -160 -57 0 -58 0 0 88 c0 48 3 103 6
124 8 46 58 108 87 108 22 0 22 -2 22 -160z m140 86 c2 -11 6 -72 8 -133 l5
-113 -31 0 c-29 0 -29 1 -23 38 3 20 6 83 6 139 0 87 2 102 15 97 8 -4 17 -16
20 -28z m596 -861 l65 -585 -31 -4 c-141 -20 -180 -26 -250 -36 -44 -6 -107
-15 -140 -20 -33 -5 -96 -14 -140 -20 -44 -6 -107 -15 -140 -20 -33 -5 -96
-14 -140 -20 -44 -6 -105 -15 -135 -20 -111 -19 -116 -18 -278 64 l-153 77 6
42 c3 23 17 141 30 262 14 121 40 359 60 530 19 170 35 310 35 312 0 2 11 3
25 3 21 0 31 -12 65 -80 22 -44 46 -80 53 -80 7 0 30 41 51 90 l38 90 457 0
457 0 65 -585z"/>
</g>
</svg>
